<svg aria-hidden="true" style="position: absolute; width: 0; height: 0; overflow: hidden;" version="1.1" xmlns="http://www.w3.org/2000/svg" xmlns:xlink="http://www.w3.org/1999/xlink">
<defs>

<symbol id="icon-cross" viewBox="0 0 32 32">
<path d="M32 3.223l-3.223-3.223-12.777 12.777-12.777-12.777-3.223 3.223 12.777 12.777-12.777 12.777 3.223 3.223 12.777-12.777 12.777 12.777 3.223-3.223-12.777-12.777 12.777-12.777z"></path>
</symbol>

<symbol id="icon-previous" viewBox="0 0 32 32">
<path  d="M23.619 2.804l-13.416 13.196 13.416 13.196-2.072 2.042-15.451-15.246 15.451-15.23 2.072 2.042z"></path>
</symbol>

<symbol id="icon-next" viewBox="0 0 32 32">
<path  d="M8.381 29.196l13.416-13.196-13.416-13.196 2.072-2.042 15.451 15.246-15.451 15.23-2.072-2.042z"></path>
</symbol>

<symbol id="icon-system-uicons_loader" viewBox="0 0 31 32">
<path fill="none" stroke="#487996" style="stroke: var(--color1, #487996)" stroke-linejoin="round" stroke-linecap="round" stroke-miterlimit="4" stroke-width="0.6957" d="M15.652 5.277v2.981"></path>
<path fill="none" stroke="#487996" style="stroke: var(--color1, #487996)" stroke-linejoin="round" stroke-linecap="round" stroke-miterlimit="4" stroke-width="0.6957" d="M23.106 8.258l-2.236 2.236"></path>
<path fill="none" stroke="#487996" style="stroke: var(--color1, #487996)" stroke-linejoin="round" stroke-linecap="round" stroke-miterlimit="4" stroke-width="0.6957" d="M8.199 8.258l2.236 2.236"></path>
<path fill="none" stroke="#487996" style="stroke: var(--color1, #487996)" stroke-linejoin="round" stroke-linecap="round" stroke-miterlimit="4" stroke-width="0.6957" d="M15.652 26.146v-2.981"></path>
<path fill="none" stroke="#487996" style="stroke: var(--color1, #487996)" stroke-linejoin="round" stroke-linecap="round" stroke-miterlimit="4" stroke-width="0.6957" d="M23.106 23.165l-2.236-2.236"></path>
<path fill="none" stroke="#487996" style="stroke: var(--color1, #487996)" stroke-linejoin="round" stroke-linecap="round" stroke-miterlimit="4" stroke-width="0.6957" d="M8.199 23.165l2.236-2.236"></path>
<path fill="none" stroke="#487996" style="stroke: var(--color1, #487996)" stroke-linejoin="round" stroke-linecap="round" stroke-miterlimit="4" stroke-width="0.6957" d="M5.217 15.711h2.981"></path>
<path fill="none" stroke="#487996" style="stroke: var(--color1, #487996)" stroke-linejoin="round" stroke-linecap="round" stroke-miterlimit="4" stroke-width="0.6957" d="M23.106 15.711h2.981"></path>
</symbol>

</defs>
</svg>
